HIERARCHY
ROOT Hips
{
	OFFSET 0.000000 0.000000 0.000000
	CHANNELS 6 Xposition Yposition Zposition Xrotation Yrotation Zrotation
	JOINT LeftUpLeg_virtual
	{
		OFFSET 0.000000 0.000000 0.000000
		CHANNELS 3 Xrotation Yrotation Zrotation
		JOINT LeftUpLeg
		{
			OFFSET 11.394100 -6.187798 -0.413800
			CHANNELS 3 Xrotation Yrotation Zrotation
			JOINT LeftLeg
			{
				OFFSET 0.430247 -32.302673 3.732800
				CHANNELS 3 Xrotation Yrotation Zrotation
				JOINT LeftFoot
				{
					OFFSET -0.430247 -48.264931 -6.423300
					CHANNELS 3 Xrotation Yrotation Zrotation
					JOINT LeftToeBase
					{
						OFFSET 4.230900 -16.068199 23.438400
						CHANNELS 3 Xrotation Yrotation Zrotation
						JOINT LeftToe_End
						{
							OFFSET 4.510700 0.695400 19.974600
							CHANNELS 3 Xrotation Yrotation Zrotation
							End Site
							{
								OFFSET 0 0 0
							}
						}
					}
				}
			}
		}
	}
	JOINT RightUpLeg_virtual
	{
		OFFSET 0.000000 0.000000 0.000000
		CHANNELS 3 Xrotation Yrotation Zrotation
		JOINT RightUpLeg
		{
			OFFSET -11.333700 -6.187798 -0.413800
			CHANNELS 3 Xrotation Yrotation Zrotation
			JOINT RightLeg
			{
				OFFSET -0.430392 -32.302628 3.733000
				CHANNELS 3 Xrotation Yrotation Zrotation
				JOINT RightFoot
				{
					OFFSET 0.430392 -48.264973 -6.423500
					CHANNELS 3 Xrotation Yrotation Zrotation
					JOINT RightToeBase
					{
						OFFSET -4.230900 -16.068199 23.438400
						CHANNELS 3 Xrotation Yrotation Zrotation
						JOINT RightToe_End
						{
							OFFSET -4.510700 0.695400 19.974600
							CHANNELS 3 Xrotation Yrotation Zrotation
							End Site
							{
								OFFSET 0 0 0
							}
						}
					}
				}
			}
		}
	}
	JOINT Spine_virtual
	{
		OFFSET 0.000000 0.000000 0.000000
		CHANNELS 3 Xrotation Yrotation Zrotation
		JOINT Spine
		{
			OFFSET -0.002400 12.777504 0.315300
			CHANNELS 3 Xrotation Yrotation Zrotation
			JOINT Spine1
			{
				OFFSET -0.002067 5.816869 0.032633
				CHANNELS 3 Xrotation Yrotation Zrotation
				JOINT Spine1_split
				{
					OFFSET -0.002067 5.816869 0.032633
					CHANNELS 3 Xrotation Yrotation Zrotation
					JOINT Spine2
					{
						OFFSET -0.002067 5.816869 0.032633
						CHANNELS 3 Xrotation Yrotation Zrotation
						JOINT Neck_virtual
						{
							OFFSET 0.000000 0.000000 0.000000
							CHANNELS 3 Xrotation Yrotation Zrotation
							JOINT Neck
							{
								OFFSET -0.003700 21.199493 -0.826900
								CHANNELS 3 Xrotation Yrotation Zrotation
								JOINT Head
								{
									OFFSET 0.000000 20.442200 4.834800
									CHANNELS 3 Xrotation Yrotation Zrotation
									JOINT HeadTop_End
									{
										OFFSET 0.000000 34.668396 4.968400
										CHANNELS 3 Xrotation Yrotation Zrotation
										End Site
										{
											OFFSET 0 0 0
										}
									}
								}
							}
						}
						JOINT LeftShoulder_virtual
						{
							OFFSET 0.000000 0.000000 0.000000
							CHANNELS 3 Xrotation Yrotation Zrotation
							JOINT LeftShoulder
							{
								OFFSET 3.288150 8.794197 -1.372250
								CHANNELS 3 Xrotation Yrotation Zrotation
								JOINT LeftShoulder_split
								{
									OFFSET 3.288150 8.794197 -1.372250
									CHANNELS 3 Xrotation Yrotation Zrotation
									JOINT LeftArm
									{
										OFFSET 11.953299 -2.279007 -0.146200
										CHANNELS 3 Xrotation Yrotation Zrotation
										JOINT LeftForeArm
										{
											OFFSET 18.448900 0.000000 0.000000
											CHANNELS 3 Xrotation Yrotation Zrotation
											JOINT LeftHand
											{
												OFFSET 29.527798 0.000000 0.000000
												CHANNELS 3 Xrotation Yrotation Zrotation
												End Site
												{
													OFFSET 0 0 0
												}
											}
										}
									}
								}
							}
						}
						JOINT RightShoulder_virtual
						{
							OFFSET 0.000000 0.000000 0.000000
							CHANNELS 3 Xrotation Yrotation Zrotation
							JOINT RightShoulder
							{
								OFFSET -3.249400 8.794197 -1.372250
								CHANNELS 3 Xrotation Yrotation Zrotation
								JOINT RightShoulder_split
								{
									OFFSET -3.249400 8.794197 -1.372250
									CHANNELS 3 Xrotation Yrotation Zrotation
									JOINT RightArm
									{
										OFFSET -11.953299 -2.279007 -0.146200
										CHANNELS 3 Xrotation Yrotation Zrotation
										JOINT RightForeArm
										{
											OFFSET -18.448900 0.000000 0.000000
											CHANNELS 3 Xrotation Yrotation Zrotation
											JOINT RightHand
											{
												OFFSET -29.527802 0.000000 0.000000
												CHANNELS 3 Xrotation Yrotation Zrotation
												End Site
												{
													OFFSET 0 0 0
												}
											}
										}
									}
								}
							}
						}
					}
				}
			}
		}
	}
}
MOTION
Frames: 5
Frame Time: 0.03333333
17.439569 41.000648 402.951721 0.000000 0.000000 0.000000 56.507623 -44.073206 95.181323 -71.997939 -11.468871 8.567122 38.381364 -5.354234 3.689717 -0.352242 4.970759 -15.733793 -0.077138 4.127958 -19.523327 0.000000 0.000000 0.000000 47.415812 -45.582049 95.636582 -116.749585 -35.174846 -22.747322 138.300566 -5.970058 -19.092798 52.575767 19.956266 38.238749 13.882092 -3.556426 18.781062 0.000000 0.000000 0.000000 55.754045 -52.814609 95.972709 7.899229 -9.099533 -4.690253 21.996322 -11.357068 -0.008038 -0.684499 2.926997 -1.116323 0.000000 0.000000 0.000000 16.755598 -12.361929 -0.118722 14.417932 3.881436 -7.082398 -7.978258 24.296969 -18.653373 0.000000 0.000000 0.000000 20.722954 -12.288790 1.424868 1.060712 -0.386150 -20.434295 -3.077545 -0.551944 1.931899 3.944711 2.585478 -55.853626 29.709240 -16.813747 -4.193333 0.000000 0.000000 0.000000 19.908401 -12.720115 -0.028673 3.276802 21.698165 4.474435 3.862814 6.923700 6.620999 -31.112150 -9.060791 -0.089217 -27.482410 19.403603 3.770157 0.000000 0.000000 0.000000 
17.573740 41.792599 415.868866 0.000000 0.000000 0.000000 55.397291 -43.201841 88.616985 -82.043665 -14.237464 9.681558 39.198797 -5.805457 0.419526 5.515584 3.858637 -19.692894 1.750103 3.713205 -22.061882 0.000000 0.000000 0.000000 44.574955 -43.891868 88.523684 -121.958902 -31.675760 -31.024273 140.305869 -3.534981 -20.999879 54.259081 23.333507 40.454486 15.380681 -3.875716 20.763831 0.000000 0.000000 0.000000 54.329982 -52.529411 89.851835 8.551643 -7.071575 -3.951451 21.970210 -9.242481 -0.094859 -1.499230 2.906516 -0.810974 0.000000 0.000000 0.000000 16.525839 -10.205428 -0.489687 12.482845 3.872271 -5.106995 -11.342813 23.604789 -15.476423 0.000000 0.000000 0.000000 20.165918 -10.176523 0.815092 0.804137 -0.773845 -21.031718 -2.479789 0.047243 2.393876 7.186682 3.858557 -55.106250 31.234899 -16.447365 -4.878850 0.000000 0.000000 0.000000 19.742493 -10.387796 -0.219206 2.516834 21.873256 5.708373 4.301754 5.852328 6.945723 -33.934480 -11.846852 2.942390 -28.461994 17.888498 2.563194 0.000000 0.000000 0.000000 
17.524462 41.958652 428.300018 0.000000 0.000000 0.000000 52.401164 -42.893875 80.446043 -94.750406 -15.532680 11.072806 44.117332 -6.625629 -2.508839 13.719074 0.679085 -22.081204 3.148551 3.662577 -24.095089 0.000000 0.000000 0.000000 41.713003 -43.245227 79.647102 -123.415344 -28.045674 -37.697228 141.488666 -1.343612 -21.844808 53.856844 23.642485 41.382555 19.080726 -3.161872 21.397311 0.000000 0.000000 0.000000 50.636403 -52.247624 81.568967 9.294585 -4.547388 -3.560947 21.324112 -6.865847 -0.535127 -1.769554 2.834465 0.187521 0.000000 0.000000 0.000000 16.013616 -7.804773 -1.185124 9.510141 3.684635 -2.682137 -14.519340 21.983232 -12.096957 0.000000 0.000000 0.000000 19.092607 -7.811560 -0.297778 0.533696 -0.959756 -21.403110 -0.943773 -0.744610 2.344776 11.257112 5.265900 -52.408233 32.559539 -17.808228 -4.729203 0.000000 0.000000 0.000000 19.209702 -7.688531 -0.792223 1.785889 21.234175 7.254789 5.544359 5.196824 6.507295 -34.249850 -16.917795 10.914938 -29.008957 20.981673 2.805866 0.000000 0.000000 0.000000 
17.104961 41.602528 440.488037 0.000000 0.000000 0.000000 47.601542 -43.294366 70.734395 -108.284877 -15.401638 13.640772 53.680697 -7.394773 -4.581039 22.608389 -3.280251 -21.520079 2.120698 4.355748 -24.821712 0.000000 0.000000 0.000000 38.023024 -44.053422 69.160037 -120.345666 -26.276542 -43.223425 141.919460 0.538886 -21.096366 50.870610 20.142375 40.597169 26.278359 -1.102555 20.797740 0.000000 0.000000 0.000000 45.042806 -51.667502 71.486454 9.950103 -1.873008 -3.358372 20.162691 -4.727488 -1.181112 -1.499593 2.848743 1.288704 0.000000 0.000000 0.000000 15.321190 -5.655449 -2.017242 5.914339 3.713964 -0.376890 -17.075642 20.510377 -9.154252 0.000000 0.000000 0.000000 17.744495 -5.687887 -1.660192 0.362586 -0.930494 -21.231532 1.279241 -2.148716 1.978181 15.032024 6.949145 -47.344085 33.419112 -20.735870 -3.880308 0.000000 0.000000 0.000000 18.402005 -5.164673 -1.562165 1.253138 20.003534 8.610429 7.466233 5.254820 5.921046 -29.717228 -22.981850 24.111138 -29.202952 28.769423 4.533183 0.000000 0.000000 0.000000 
16.132574 40.983143 452.460846 0.000000 0.000000 0.000000 41.818263 -44.053409 59.901107 -120.459784 -14.388289 16.884374 67.602972 -7.531714 -5.356510 29.683432 -6.064517 -17.383214 -1.139201 5.479445 -23.633616 0.000000 0.000000 0.000000 34.515203 -45.752043 58.412140 -110.711807 -28.448525 -46.458172 139.708979 2.310163 -19.270387 44.444485 14.121319 39.301793 31.294865 0.821480 18.947869 0.000000 0.000000 0.000000 38.746666 -50.272252 60.254016 10.075112 0.540246 -3.110355 18.663360 -3.245320 -1.842120 -0.637991 2.686135 1.538019 0.000000 0.000000 0.000000 14.626905 -4.159193 -2.791934 2.322793 4.325705 1.425983 -18.898759 20.315587 -6.742239 0.000000 0.000000 0.000000 16.393048 -4.236546 -2.891620 0.281400 -0.735873 -20.058775 3.536824 -3.045658 0.825448 16.165938 9.152325 -39.609128 32.949317 -24.282842 -2.979750 0.000000 0.000000 0.000000 17.355282 -3.390984 -2.328668 1.016085 18.548724 9.366844 9.614181 5.465002 5.162653 -20.154912 -27.537987 41.526655 -29.602702 40.778634 7.904841 0.000000 0.000000 0.000000 
